<svg id="Capa_1" enable-background="new 0 0 512 512" height="512" viewBox="0 0 512 512" width="512" xmlns="http://www.w3.org/2000/svg"><g><path d="m480.133 445.93c0-42.779-25.476-80.819-63.735-97.62l-20 114.956 20 48.734h63.735z" fill="#ece6f2"/><path d="m31.867 445.93v66.07h63.734l20-48.734-20-114.956c-38.258 16.801-63.734 54.841-63.734 97.62z" fill="#fff5f5"/><path d="m401.239 342.952-35.104-9.463h-110.135l-20 158.511 99.797 20h80.601v-163.69c-4.859-2.134-9.913-3.944-15.159-5.358z" fill="#198080"/><path d="m145.864 333.489-35.104 9.463c-5.246 1.414-10.3 3.224-15.159 5.358v163.69h80.602l79.797-20v-158.511z" fill="#24b3b3"/><path d="m399.485 255.87-163.485-20 20 148.661c74.417 0 135.672-56.321 143.485-128.661z" fill="#ffdecf"/><path d="m112.515 255.87c7.813 72.34 69.068 128.661 143.485 128.661v-148.661z" fill="#ffeee5"/><path d="m305.797 512h30c0-43.414-35.32-78.734-78.734-78.734h-1.063l-20 58.734z" fill="#ece6f2"/><path d="m176.203 512h30l49.797-20v-58.734h-1.063c-43.414 0-78.734 35.32-78.734 78.734z" fill="#fff5f5"/><path d="m305.797 512c0-26.872-21.862-48.734-48.734-48.734h-1.063l-20 24.367 20 24.367z" fill="#ffc34d"/><path d="m206.203 512h49.797v-48.734h-1.063c-26.872 0-48.734 21.862-48.734 48.734z" fill="#ffe14d"/><path d="m400.335 240.196h15.854c26.471 0 47.931-21.459 47.931-47.931 0-26.471-21.459-47.931-47.931-47.931h-35.854z" fill="#ffbeaa"/><path d="m111.665 240.196h-15.854c-26.471 0-47.931-21.459-47.931-47.931 0-26.471 21.459-47.931 47.931-47.931h35.854z" fill="#ffdecf"/><path d="m399.455 128.401-163.455-20 20 147.469h143.485c.556-5.149.85-10.377.85-15.674v-95.861c0-5.386-.305-10.701-.88-15.934z" fill="#198080"/><path d="m112.545 128.401c-.575 5.233-.88 10.547-.88 15.934v95.861c0 5.297.294 10.525.85 15.674h143.485v-147.469z" fill="#24b3b3"/><path d="m304.813 177.136h31.867v30h-31.867z" fill="#0f244d"/><path d="m175.319 177.136h31.867v30h-31.867z" fill="#283d66"/><path d="m343.902 29.861-107.902 14.806 20 83.734h143.455c-4.401-40.071-25.208-75.2-55.553-98.54z" fill="#ffdecf"/><path d="m168.098 29.861c-30.345 23.34-51.152 58.469-55.553 98.54h143.455v-83.734z" fill="#ffeee5"/><path d="m256 0-20 32.333 20 32.333c34.009 0 64.93-13.222 87.902-34.806-24.341-18.721-54.818-29.86-87.902-29.86z" fill="#ffc34d"/><path d="m256 0c-33.084 0-63.561 11.139-87.902 29.861 22.972 21.584 53.893 34.806 87.902 34.806z" fill="#ffe14d"/></g></svg>